<svg xmlns="http://www.w3.org/2000/svg" viewBox="0 0 40 40"><path d="M15.92041,18.95538c-.64569,0-1.195.87769-1.195,1.96411s.54926,1.96528,1.195,1.96528c.66071,0,1.20905-.87879,1.20905-1.96528S16.58112,18.95538,15.92041,18.95538Z"/><path d="M32.5,0H7.5A7.522,7.522,0,0,0,0,7.5v25A7.522,7.522,0,0,0,7.5,40h25A7.522,7.522,0,0,0,40,32.5V7.5A7.522,7.522,0,0,0,32.5,0ZM10.38855,24.51282l-2.2027-3.05677H7.44507v3.05018H5v-9.1634H8.50269c2.01928,0,3.66754,1.37311,3.66754,3.06263a2.97656,2.97656,0,0,1-1.59351,2.51385L13.163,24.51282Zm5.53186.14428a3.73736,3.73736,0,1,1,3.76349-3.73761A3.73441,3.73441,0,0,1,15.92041,24.6571ZM35,24.50616h-.52179L33.379,23.55811A3.39725,3.39725,0,0,1,30.97461,24.657c-2.14276,0-2.99365-1.30566-2.99365-2.72058V17.675l-3.0951,3.094,3.7367,3.73718H25.54565L22.6051,21.59332v2.91284H20.16052v-7.1809H22.6051V20.1507l2.81665-2.81611h5.00452v3.92872c0,1.1405.27594,1.497.87744,1.497a1.3695,1.3695,0,0,0,1.25165-.78253V17.33459H35Z"/><path d="M8.20087,16.86688h-.7558v3.06354h.7558a1.53179,1.53179,0,0,0,0-3.06354Z"/></svg>
