<?xml version="1.0" encoding="utf-8"?>
<!-- Generator: Adobe Illustrator 22.1.0, SVG Export Plug-In . SVG Version: 6.00 Build 0)  -->
<svg version="1.1" id="Layer_2" xmlns="http://www.w3.org/2000/svg" xmlns:xlink="http://www.w3.org/1999/xlink" x="0px" y="0px"
	 viewBox="0 0 40 40" style="enable-background:new 0 0 40 40;" xml:space="preserve">
<style type="text/css">
	.st0{fill:#662D91;}
	.st1{fill:#FFFFFF;}
</style>
<rect class="st0" width="40" height="40"/>
<g>
	<path class="st1" d="M16,17.2c-2.1,0-3.7,1.6-3.8,3.7c0,2.1,1.6,3.7,3.7,3.8c0,0,0,0,0,0c2.1,0,3.7-1.7,3.7-3.7
		C19.7,18.9,18,17.2,16,17.2z M15.9,22.9c-0.6,0-1.2-0.9-1.2-2s0.5-2,1.2-2c0.7,0,1.2,0.9,1.2,2S16.6,22.9,15.9,22.9z"/>
	<path class="st1" d="M12.2,18.4c0-1.7-1.6-3.1-3.7-3.1H5v9.2h2.4v-3.1h0.7l2.2,3.1h2.8l-2.6-3.6C11.5,20.4,12.1,19.5,12.2,18.4z
		 M8.2,19.9H7.4v-3.1h0.8c0.8,0,1.5,0.7,1.5,1.5C9.7,19.2,9,19.9,8.2,19.9z"/>
	<path class="st1" d="M32.6,17.3V22c-0.2,0.5-0.7,0.8-1.3,0.8c-0.6,0-0.9-0.4-0.9-1.5v-3.9h-5l-2.8,2.8v-2.8h-2.4v7.2h2.4v-2.9
		l2.9,2.9h3.1l-3.7-3.7l3.1-3.1v4.3c0,1.4,0.9,2.7,3,2.7c0.9,0,1.8-0.4,2.4-1.1l1.1,0.9H35v-7.2H32.6z"/>
</g>
</svg>
